<svg xmlns="http://www.w3.org/2000/svg" viewBox="0 0 128 128" role="img" aria-labelledby="title">
  <title>YouTube Comments Extractor icon</title>
  <defs>
    <filter id="shadow" x="-20%" y="-20%" width="140%" height="140%">
      <feDropShadow dx="0" dy="5" stdDeviation="5" flood-color="#68070a" flood-opacity=".35"/>
    </filter>
  </defs>

  <rect width="128" height="128" rx="26" fill="#d71920"/>
  <path d="M37 24h54c12 0 20 8 20 19v25c0 12-8 20-20 20H66l-20 17c-3 3-8 1-8-4V88h-1c-12 0-20-8-20-20V43c0-11 8-19 20-19Z" fill="#fff" filter="url(#shadow)"/>
  <path d="M54 46c0-4 4-7 8-5l24 14c4 2 4 8 0 10L62 79c-4 2-8-1-8-5V46Z" fill="#181818"/>
  <path d="M82 80h17" fill="none" stroke="#181818" stroke-width="8" stroke-linecap="round"/>
  <path d="M96 69l13 11-13 11" fill="none" stroke="#181818" stroke-width="8" stroke-linecap="round" stroke-linejoin="round"/>
  <circle cx="35" cy="51" r="5" fill="#d71920"/>
  <circle cx="35" cy="66" r="5" fill="#d71920"/>
</svg>
